<?xml version="1.0"?>
<svg xmlns="http://www.w3.org/2000/svg" height="512px" viewBox="-10 0 512 512.00048" width="512px"><path d="m462.535156 11.117188c2.136719-7.992188 10.347656-12.742188 18.339844-10.605469 7.996094 2.136719 12.742188 10.347656 10.605469 18.339843l-43.21875 161.296876 14.5 3.886718c7.996093 2.136719 12.742187 10.347656 10.605469 18.339844-.054688.210938-.117188.417969-.179688.621094l-47.332031 177.582031v.011719c-14.804688 64.390625-63.03125 103.183594-122.207031 120.617187-31.070313 9.152344-65.128907 12.316407-98.746094 10.125-33.558594-2.183593-66.839844-9.714843-96.417969-21.953125-61.699219-25.535156-107.53125-71.601562-108.4414062-133.054687-.3710938-4.882813 1.6601562-9.847657 5.8398432-13.042969 54.191407-41.480469 123.796876-61.441406 196.089844-62.015625 50.109375-.398437 101.589844 8.53125 150.128906 26.074219l34.355469-128.230469c2.136719-7.996094 10.351563-12.742187 18.34375-10.605469l14.519531 3.890625zm-343.976562 370.898437h191.851562c8.285156 0 15.003906-6.714844 15.003906-15s-6.71875-15.003906-15.003906-15.003906h-191.851562c-8.285156 0-15.003906 6.71875-15.003906 15.003906s6.71875 15 15.003906 15zm69.007812 60.007813h53.839844c8.285156 0 15-6.71875 15-15.003907 0-8.285156-6.714844-15-15-15h-53.839844c-8.285156 0-15.003906 6.714844-15.003906 15 0 8.285157 6.714844 15.003907 15.003906 15.003907zm211.457032-80.710938c-60.355469-33.3125-129.921876-50.695312-196.816407-50.160156-63.265625.5-124 17.050781-171.945312 51.332031 3.917969 44.609375 40.761719 79.027344 89.59375 99.234375 26.539062 10.984375 56.546875 17.75 86.921875 19.730469 30.308594 1.972656 60.824218-.824219 88.433594-8.957031 53.015624-15.621094 95.40625-51.300782 103.8125-111.179688zm8.792968-29.277344 17.269532-64.789062-29.128907-7.804688-15.847656 59.136719c9.398437 4.152344 18.644531 8.636719 27.707031 13.457031zm24.984375-93.746094 7.777344-29.179687-29.050781-7.785156-7.816406 29.171875zm0 0" fill-rule="evenodd" fill="#454545"/></svg>
