<?xml version="1.0" encoding="iso-8859-1"?>
<!-- Generator: Adobe Illustrator 19.0.0, SVG Export Plug-In . SVG Version: 6.00 Build 0)  -->
<svg version="1.1" id="Capa_1" xmlns="http://www.w3.org/2000/svg" xmlns:xlink="http://www.w3.org/1999/xlink" x="0px" y="0px"
	 viewBox="0 0 512.341 512.341" style="enable-background:new 0 0 512.341 512.341;" xml:space="preserve">
<g>
	<path style="fill:#FFC107;" d="M296.642,252.267c-9.408-27.912-39.663-42.913-67.575-33.504
		c-26.161,8.818-41.268,36.142-34.825,62.987c19.2,66.752,89.429,126.656,153.749,177.557c4.619,3.658,11.328,2.88,14.987-1.739
		c3.658-4.619,2.88-11.328-1.739-14.987c-61.739-48.853-129.045-106.048-146.496-166.72c-4.884-16.996,4.935-34.732,21.931-39.616
		s34.732,4.935,39.616,21.931c11.648,40.533,69.568,90.624,124.672,134.229c4.619,3.658,11.328,2.88,14.987-1.739
		c3.658-4.619,2.88-11.328-1.739-14.987C385.112,352.704,308.056,291.733,296.642,252.267z"/>
	<path style="fill:#FFC107;" d="M377.496,224.768c-23.19-71.1-98.323-111.263-170.325-91.051
		c-73.613,21.122-116.165,97.921-95.042,171.534c0.015,0.052,0.03,0.105,0.045,0.157c17.515,60.843-20.032,77.717-32,81.429
		c-5.62,1.767-8.743,7.756-6.976,13.376c1.767,5.62,7.756,8.743,13.376,6.976c32.619-10.197,64.299-44.501,46.101-107.691
		c-17.94-62.269,17.996-127.29,80.264-145.23c0.033-0.009,0.066-0.019,0.098-0.028c61.568-17.306,125.716,17.587,144.64,78.677
		c0.252,0.832,0.611,1.628,1.067,2.368c1.109,1.835,3.392,5.696,71.957,61.333c4.571,3.717,11.291,3.025,15.008-1.547
		c3.717-4.571,3.025-11.291-1.547-15.008C419.245,259.84,382.829,229.781,377.496,224.768z"/>
	<path style="fill:#FFC107;" d="M337.688,240.469c-14.733-50.875-67.83-80.261-118.763-65.728
		c-50.011,15.44-79.038,67.48-65.899,118.144c21.547,98.133,5.44,120.789-38.763,134.613c-5.62,1.767-8.743,7.756-6.976,13.376
		s7.756,8.743,13.376,6.976c61.76-19.2,75.179-59.563,53.333-159.552c-10.613-39.648,11.825-80.634,50.944-93.056
		c39.638-11.253,80.922,11.624,92.395,51.2c4.267,14.549,15.595,34.517,102.955,103.659c4.619,3.658,11.328,2.88,14.987-1.739
		c3.658-4.619,2.88-11.328-1.739-14.987C354.242,270.656,340.674,250.795,337.688,240.469z"/>
	<path style="fill:#FFC107;" d="M367.042,388.949c-36.096-27.392-96.512-73.216-111.381-124.885
		c-1.724-5.633-7.689-8.802-13.322-7.077c-5.495,1.682-8.67,7.415-7.18,12.965c16.811,58.496,80.768,107.008,118.976,136
		c7.765,5.591,15.241,11.572,22.4,17.92c4.237,4.093,10.99,3.976,15.083-0.261c3.993-4.134,3.993-10.688,0-14.821
		C383.806,401.719,375.601,395.095,367.042,388.949z"/>
	<path style="fill:#FFC107;" d="M309.314,463.147c-10.781-20.001-30.639-33.489-53.205-36.139
		c-36.267,0-41.877,61.653-42.667,74.005c-0.365,5.879,4.105,10.941,9.984,11.307h0.683c5.642,0.011,10.317-4.374,10.667-10.005
		c1.344-21.973,9.749-53.973,21.333-53.973c15.808,0,27.029,15.232,36.032,27.456c2.974,4.24,6.231,8.274,9.749,12.075
		c4.237,4.093,10.99,3.975,15.083-0.262c3.993-4.134,3.993-10.687,0-14.821C314.214,469.745,311.655,466.524,309.314,463.147z"/>
	<path style="fill:#FFC107;" d="M212.952,370.432c-2.005-5.539-8.121-8.404-13.66-6.399c-5.21,1.886-8.109,7.448-6.67,12.799
		c9.131,28.523-8.811,84.501-35.797,93.269c-5.622,1.76-8.753,7.744-6.994,13.366c1.76,5.622,7.744,8.753,13.366,6.994
		c0.074-0.023,0.147-0.047,0.22-0.072C204.461,477.163,224.258,405.867,212.952,370.432z"/>
	<path style="fill:#FFC107;" d="M440.728,224.853c-13.333-4.267-23.808-21.333-35.947-40.811
		c-25.685-41.515-60.907-98.368-159.339-98.368C145.343,85.792,64.226,166.909,64.109,267.008c0,5.891,4.776,10.667,10.667,10.667
		s10.667-4.776,10.667-10.667c0.094-88.327,71.673-159.906,160-160c86.549,0,116.864,48.939,141.227,88.277
		c14.336,23.147,26.709,43.136,47.488,49.877c5.583,1.881,11.633-1.12,13.514-6.702c1.881-5.583-1.12-11.633-6.702-13.514
		c-0.073-0.025-0.146-0.048-0.22-0.072L440.728,224.853z"/>
	<path style="fill:#FFC107;" d="M85.442,352.341c5.891,0,10.667-4.776,10.666-10.667c0-1.659-0.387-3.295-1.13-4.778
		c-4.552-8.533-7.769-17.713-9.536-27.221c0-5.891-4.776-10.667-10.667-10.667s-10.667,4.776-10.667,10.667
		c1.712,12.864,5.708,25.319,11.797,36.779C77.715,350.062,81.406,352.341,85.442,352.341z"/>
	<path style="fill:#FFC107;" d="M79.896,126.784c5.03,3.066,11.594,1.475,14.66-3.555c0.006-0.01,0.012-0.019,0.017-0.029
		c9.259-15.275,54.869-58.859,140.203-58.859c82.005,0,140.352,41.536,150.869,58.859c3.057,5.037,9.619,6.641,14.656,3.584
		c5.037-3.057,6.641-9.619,3.584-14.656l0,0c-14.635-24.107-79.253-69.12-169.109-69.12c-95.552,0-146.773,49.899-158.464,69.141
		C73.267,117.181,74.871,123.728,79.896,126.784z"/>
	<path style="fill:#FFC107;" d="M143.042,42.069c4.885-2.133,9.024-4.267,12.949-6.4c16.043-8.085,27.584-13.995,78.784-13.995
		c34.571-1.905,69.149,3.631,101.397,16.235c4.075,1.515,8.171,3.029,12.459,4.501c1.118,0.388,2.293,0.59,3.477,0.597
		c5.891,0.011,10.675-4.756,10.686-10.647c0.008-4.566-2.89-8.63-7.209-10.11c-4.139-1.429-8.064-2.88-11.989-4.267
		C308.977,4.482,271.888-1.531,234.776,0.341c-56.405,0-70.528,7.253-88.448,16.448c-3.605,1.856-7.445,3.819-11.925,5.824
		c-5.474,2.176-8.148,8.378-5.973,13.852c2.176,5.474,8.378,8.148,13.852,5.973c0.28-0.111,0.555-0.234,0.824-0.369L143.042,42.069z
		"/>
	<path style="fill:#FFC107;" d="M427.266,184.917c2.005,5.539,8.121,8.404,13.66,6.399c5.21-1.886,8.109-7.448,6.67-12.799
		c-6.052-15.671-13.559-30.742-22.421-45.013c-3.087-5.019-9.658-6.586-14.677-3.499s-6.586,9.658-3.499,14.677
		C414.94,157.464,421.723,170.929,427.266,184.917z"/>
</g>
<path d="M354.541,461.611c-2.401-0.002-4.731-0.814-6.613-2.304c-64.32-50.923-134.485-110.805-153.685-177.557
	c-6.875-28.642,10.771-57.433,39.413-64.308c26.845-6.443,54.169,8.664,62.987,34.825c11.349,39.445,88.405,100.437,117.333,123.392
	c4.731,3.511,5.72,10.192,2.209,14.922s-10.192,5.72-14.922,2.209c-0.175-0.13-0.347-0.266-0.514-0.406
	c-55.104-43.605-113.067-93.675-124.693-134.229c-4.884-16.99-22.616-26.804-39.605-21.92c-16.99,4.884-26.804,22.616-21.92,39.605
	c17.451,60.672,84.757,117.867,146.475,166.72c4.619,3.657,5.398,10.366,1.741,14.984c-2.026,2.559-5.112,4.049-8.376,4.045
	L354.541,461.611z"/>
<path d="M83.309,407.616c-5.891-0.011-10.658-4.795-10.647-10.686c0.008-4.652,3.031-8.762,7.469-10.157
	c11.925-3.733,49.472-20.608,32-81.429c-21.17-73.599,21.332-150.425,94.931-171.595c0.036-0.01,0.073-0.021,0.109-0.031
	c72.01-20.226,147.156,19.94,170.347,91.051c5.312,4.992,41.728,35.072,66.645,55.296c4.458,3.85,4.951,10.586,1.101,15.045
	c-3.686,4.268-10.057,4.929-14.541,1.51c-68.587-55.659-70.869-59.52-71.979-61.355c-0.441-0.738-0.792-1.526-1.045-2.347
	c-18.924-61.101-83.086-95.997-144.661-78.677c-62.282,17.895-98.264,82.891-80.369,145.172c0.002,0.007,0.004,0.015,0.006,0.022
	c18.176,63.168-13.483,97.493-46.123,107.691C85.503,407.457,84.409,407.623,83.309,407.616z"/>
<path d="M117.442,448.341c-5.891-0.011-10.658-4.795-10.647-10.686c0.008-4.652,3.031-8.762,7.469-10.157
	c44.203-13.824,60.288-36.523,38.741-134.613c-13.128-50.663,15.895-102.695,65.899-118.144
	c50.934-14.496,104.011,14.874,118.784,65.728c2.965,10.304,16.512,30.165,95.68,92.843c4.731,3.511,5.72,10.192,2.209,14.922
	c-3.511,4.731-10.192,5.72-14.922,2.209c-0.175-0.13-0.347-0.266-0.514-0.406c-87.467-69.163-98.795-89.152-102.955-103.659
	c-11.432-39.618-52.765-62.517-92.416-51.2c-39.163,12.432-61.603,53.486-50.923,93.163
	c21.952,100.011,8.533,140.267-53.333,159.552C119.518,448.194,118.483,448.345,117.442,448.341z"/>
<path d="M384.109,427.008c-2.831,0.005-5.548-1.115-7.552-3.115c-7.161-6.353-14.637-12.341-22.4-17.941
	c-38.208-28.992-102.165-77.504-118.976-136c-1.724-5.633,1.444-11.597,7.077-13.322c5.633-1.724,11.597,1.444,13.322,7.077
	c0.036,0.118,0.07,0.237,0.102,0.356c14.933,51.669,75.264,97.493,111.36,124.885c8.564,6.156,16.776,12.786,24.597,19.861
	c4.159,4.172,4.149,10.926-0.024,15.085C389.622,425.883,386.924,427.002,384.109,427.008z"/>
<path d="M224.109,512.341h-0.683c-5.879-0.366-10.349-5.428-9.984-11.307c0.768-12.352,6.4-74.005,42.667-74.005
	c22.613,2.629,42.521,16.126,53.333,36.16c2.327,3.382,4.878,6.603,7.637,9.643c4.093,4.237,3.975,10.99-0.262,15.083
	c-4.134,3.993-10.687,3.993-14.821,0c-3.525-3.787-6.782-7.815-9.749-12.053c-9.088-12.288-20.309-27.52-36.139-27.52
	c-11.563,0-19.989,32-21.333,53.995C234.426,507.967,229.751,512.352,224.109,512.341z"/>
<path d="M160.109,491.008c-5.891,0.011-10.676-4.755-10.687-10.646c-0.009-4.641,2.984-8.755,7.402-10.175
	c26.965-8.768,44.8-64.747,35.797-93.269c-2.109-5.501,0.641-11.669,6.141-13.778s11.669,0.641,13.778,6.141
	c0.155,0.404,0.285,0.817,0.39,1.237c11.328,35.435-8.533,106.667-49.536,120.064C162.328,490.894,161.22,491.038,160.109,491.008z"
	/>
<path d="M74.776,277.675c-5.891,0-10.667-4.776-10.667-10.667c0.118-100.099,81.234-181.216,181.333-181.333
	c98.432,0,133.653,56.853,159.36,98.368c12.139,19.563,22.613,36.48,35.947,40.811c5.622,1.76,8.753,7.744,6.994,13.366
	s-7.744,8.753-13.366,6.994c-0.074-0.023-0.147-0.047-0.22-0.072c-20.779-6.741-33.152-26.731-47.488-49.877
	c-24.363-39.317-54.677-88.256-141.227-88.256c-88.327,0.094-159.906,71.673-160,160C85.442,272.899,80.667,277.675,74.776,277.675z
	"/>
<path d="M85.442,352.341c-4.044,0.008-7.745-2.272-9.557-5.888c-6.087-11.459-10.075-23.915-11.776-36.779
	c0-5.891,4.776-10.667,10.667-10.667s10.667,4.776,10.667,10.667c1.772,9.507,4.988,18.687,9.536,27.221
	c2.639,5.267,0.509,11.676-4.758,14.315C88.737,351.954,87.101,352.341,85.442,352.341z"/>
<path d="M394.776,128.341c-3.734,0.002-7.197-1.948-9.131-5.141c-10.496-17.323-68.864-58.859-150.869-58.859
	c-85.333,0-130.944,43.584-140.224,58.859c-2.874,5.142-9.373,6.981-14.515,4.106c-5.142-2.874-6.981-9.373-4.106-14.515
	c0.126-0.226,0.261-0.447,0.403-0.663c11.669-19.221,62.891-69.12,158.443-69.12c89.856,0,154.475,45.013,169.109,69.141
	c3.052,5.039,1.44,11.598-3.599,14.649C398.624,127.805,396.719,128.339,394.776,128.341z"/>
<path d="M352.109,43.008c-1.183,0.002-2.358-0.192-3.477-0.576c-4.267-1.472-8.405-3.008-12.48-4.501
	c-32.241-12.606-66.81-18.15-101.376-16.256c-51.2,0-62.741,5.909-78.677,14.08c-3.925,2.027-8.085,4.139-12.949,6.4
	c-5.396,2.386-11.705-0.054-14.091-5.451c-2.386-5.396,0.054-11.705,5.451-14.091c4.501-2.027,8.32-3.989,11.947-5.845
	c17.792-9.173,31.936-16.427,88.32-16.427c37.101-1.892,74.182,4.099,108.8,17.579c3.925,1.451,7.851,2.923,11.989,4.267
	c5.609,1.8,8.697,7.807,6.897,13.416C361.023,40.085,356.816,43.095,352.109,43.008z"/>
<path d="M437.442,192.341c-4.639-0.003-8.744-3.004-10.155-7.424c-5.542-14.016-12.324-27.51-20.267-40.32
	c-3.087-5.019-1.521-11.59,3.499-14.677c5.019-3.087,11.59-1.521,14.677,3.499l0,0c8.854,14.273,16.353,29.343,22.4,45.013
	c1.791,5.612-1.307,11.614-6.919,13.404C439.632,192.17,438.54,192.341,437.442,192.341z"/>
<g>
</g>
<g>
</g>
<g>
</g>
<g>
</g>
<g>
</g>
<g>
</g>
<g>
</g>
<g>
</g>
<g>
</g>
<g>
</g>
<g>
</g>
<g>
</g>
<g>
</g>
<g>
</g>
<g>
</g>
</svg>
