<?xml version="1.0"?>
<svg xmlns="http://www.w3.org/2000/svg" height="512px" viewBox="0 -36 511.99971 511" width="512px"><path d="m504.488281 2.507812c-7.175781-4.136718-16.351562-1.675781-20.492187 5.5l-96.3125 166.960938-13.054688-7.535156c-7.175781-4.144532-16.351562-1.683594-20.492187 5.492187l-57.332031 99.300781c-4.40625-2.527343-9.09375-4.710937-14.050782-6.492187l-171.730468-61.761719c-20.609376-7.414062-42.941407-5.808594-62.878907 4.515625-20.546875 10.640625-35.832031 29.398438-41.941406 51.46875-11.246094 40.652344-7.230469 83.066407 12.285156 129.675781 13 31.050782 41.988281 50.339844 75.65625 50.339844h163.457031c26.8125 0 50.570313-13.269531 65.097657-33.570312.902343-.90625 109.394531-188.46875 109.394531-188.46875 1.992188-3.445313 2.53125-7.539063 1.5-11.382813s-3.542969-7.121093-6.988281-9.109375l-12.933594-7.46875 96.320313-166.96875c4.136718-7.179687 1.675781-16.355468-5.503907-20.496094zm-131.867187 198.414063 25.984375 15.003906-15.003907 25.988281-25.984374-15.003906zm-52.570313 91.050781 22.5625-39.078125 25.988281 15.003907-32.8125 56.832031c-2.632812-12.085938-8.046874-23.238281-15.738281-32.757813zm-62.449219 117.992188h-163.457031c-21.671875 0-39.609375-11.933594-47.980469-31.921875-16.8125-40.160157-20.425781-76.167969-11.039062-110.085938 3.886719-14.046875 13.660156-26.007812 26.816406-32.820312 7.339844-3.804688 15.164063-5.722657 22.945313-5.722657 5.402343 0 10.792969.925782 15.980469 2.792969l171.734374 61.761719c21.59375 7.765625 35.011719 26.050781 35.011719 47.71875v18.265625c0 27.578125-22.433593 50.011719-50.011719 50.011719zm0 0" fill="#454545"/><path d="m262.941406 334.949219h-177.039062c-8.285156 0-15.003906 6.714843-15.003906 15 0 8.289062 6.71875 15.003906 15.003906 15.003906h177.039062c8.285156 0 15.003906-6.714844 15.003906-15.003906 0-8.285157-6.714843-15-15.003906-15zm0 0" fill="#454545"/><path d="m85.902344 304.941406h66.6875c8.289062 0 15.003906-6.71875 15.003906-15.003906s-6.714844-15.003906-15.003906-15.003906h-66.6875c-8.285156 0-15.003906 6.71875-15.003906 15.003906s6.71875 15.003906 15.003906 15.003906zm0 0" fill="#454545"/></svg>
