<?xml version="1.0"?>
<svg xmlns="http://www.w3.org/2000/svg" height="512px" viewBox="0 0 512.00045 512" width="512px"><path d="m500.496094.417969c-8.054688-1.933594-16.152344 3.03125-18.085938 11.085937l-44.96875 187.453125-13.890625-3.277343c-8.035156-1.898438-16.085937 3.050781-18.023437 11.074218l-34.960938 144.582032-259.644531-44.492188c-28.460937-4.8125-55.160156 2.484375-77.210937 21.101562-22.054688 18.617188-33.710938 43.710938-33.710938 72.5625v16.328126c0 52.382812 42.644531 95 95.0625 95h258.875c20.582031 0 40.730469-7.164063 56.730469-20.171876 14.835937-12.0625 25.523437-28.628906 30.363281-46.945312.007812-.03125.019531-.058594.027344-.089844l52.03125-217.082031c.925781-3.875.273437-7.964844-1.816406-11.359375-2.089844-3.394531-5.445313-5.816406-9.328126-6.734375l-15.304687-3.609375 44.941406-187.34375c1.933594-8.054688-3.03125-16.148438-11.085937-18.082031zm-40.089844 234.777343-6.972656 29.085938-29.296875-6.847656 7.042969-29.132813zm-43.320312 51.398438 29.355468 6.859375-16.320312 68.089844-29.917969-5.128907zm-273.085938 170.238281h122c8.28125 0 15-6.714843 15-15 0-8.28125-6.71875-15-15-15h-122v-30h48.734375c8.285156 0 15-6.714843 15-15 0-8.285156-6.714844-15-15-15h-48.734375v-23.886719l166 28.449219v110.441407h-166zm-114-39.996093v-16.328126c0-20.019531 7.761719-36.722656 23.066406-49.644531 15.304688-12.925781 33.085938-17.789062 52.820313-14.449219l8.113281 1.390626v144.03125h-18.9375c-35.875 0-65.0625-29.160157-65.0625-65zm323.9375 65h-13.941406v-105.300782l83.121094 14.242188-11.171876 46.613281c-6.996093 25.910156-30.96875 44.445313-58.007812 44.445313zm0 0" fill="#454545"/></svg>
