<?xml version="1.0"?>
<svg xmlns="http://www.w3.org/2000/svg" height="512px" viewBox="-85 0 511 511.99829" width="512px"><path d="m297.25 114.890625c.367188.007813.734375.015625 1.097656.015625 9.308594 0 17.730469-3.464844 24.417969-10.054688 10.523437-10.371093 16.976563-24.289062 19.175781-41.367187 1.832032-14.21875-4.730468-27.5-17.132812-34.660156l-41.976563-24.234375c-7.921875-4.574219-17.167969-5.777344-26.035156-3.390625-8.847656 2.382812-16.242187 8.0625-20.8125 15.984375l-59.945313 103.824218h-16.023437l-9.234375-90.359374c-.0625-.578126-.152344-1.15625-.28125-1.722657-3.714844-16.753906-18.871094-28.9140622-36.035156-28.9140622h-75.570313c-10.578125 0-20.832031 4.3945312-28.140625 12.0585932-7.0625 7.40625-10.691406 17-10.214844 27.007813l.890626 18.644531c.554687 11.660156 5.257812 21.546875 13.59375 28.585938 8.769531 7.40625 19.835937 10.429687 31.195312 8.511718l79.570312-13.636718 4.070313 39.824218h-32.492187c-8.28125 0-15 6.714844-15 15v129.628907l-.191407.089843c-23.6875 11.089844-38.40625 35.480469-38.40625 63.65625v38.382813c0 15.921875 4.589844 29.894531 14.035157 42.710937l24.5625 33.335938v38.1875c0 16.539062 13.457031 30 30 30h123.914062c16.542969 0 30-13.460938 30-30v-36.851562l40.417969-27.855469c12.367187-8.523438 19.460937-22.027344 19.460937-37.050781v-157.234376c0-24.8125-20.1875-45-45-45h-14.878906v-42c0-8.285156-6.714844-15-15-15h-40.605469l31.101563-53.867187 30.277344 35.871094c6.222656 7.371093 15.171874 11.589843 25.195312 11.878906zm-256.066406-49.644531c-2.691406.457031-4.722656-.101563-6.804688-1.859375-1.363281-1.148438-2.78125-2.890625-2.980468-7.089844l-.890626-18.644531c-.105468-2.226563 1.007813-3.882813 1.960938-4.878906 1.671875-1.753907 4.015625-2.761719 6.429688-2.761719h75.566406c3.003906 0 5.679687 1.988281 6.585937 4.808593l1.683594 16.453126zm225.097656 142.761718h14.882812c8.269532 0 15 6.726563 15 15v157.234376c0 5.230468-2.183593 9.386718-6.488281 12.351562l-23.394531 16.121094zm-153.910156 3h86.710937l-86.710937 40.589844zm0 270.992188v-29.015625c.257812-.316406.507812-.648437.738281-.984375h123.175781v30zm123.914062-59.996094h-132.722656l-21.605469-29.320312c-5.660156-7.6875-8.1875-15.371094-8.1875-24.914063v-38.382812c0-16.65625 7.898438-30.296875 21.125-36.488281l141.390625-66.179688zm0-270.996094v29.253907c-.378906.234375-.742187.480469-1.09375.746093h-122.820312v-30zm23.78125-108.710937c-1.070312-1.265625-2.078125-3.230469-.820312-5.410156l2.71875-4.707031c.773437-1.34375 1.988281-1.839844 2.640625-2.015626.644531-.175781 1.921875-.351562 3.230469.402344l41.972656 24.234375c1.855468 1.074219 2.65625 2.707031 2.382812 4.851563-1.359375 10.554687-4.691406 18.125-10.480468 23.832031-1.105469 1.089844-2.050782 1.46875-3.589844 1.417969-2.144532-.0625-2.742188-.773438-3.140625-1.242188zm0 0" fill="#454545"/></svg>
